<?xml version="1.0"?>
<svg xmlns="http://www.w3.org/2000/svg" viewBox="0 0 64 64" width="512px" height="512px"><g><g id="hearth-healthcare-strong-medical-hospital"><path d="M53,23H48.659l-2.74-6.394a1,1,0,0,0-1.763-.143l-6.223,9.78L35.8,23.4A1,1,0,0,0,35,23H29.677l-1.748-4.372A1,1,0,0,0,27.06,18a.979.979,0,0,0-.938.519L20.827,28.23l-4.059-4.87A1,1,0,0,0,16,23H10a1,1,0,0,0,0,2h5.532l4.7,5.64A1,1,0,0,0,21,31a.815.815,0,0,0,.1,0,1,1,0,0,0,.78-.516l4.982-9.135,1.211,3.028A1,1,0,0,0,29,25h5.5l2.7,3.6a.98.98,0,0,0,.838.4,1,1,0,0,0,.806-.462l5.983-9.4,2.254,5.259A1,1,0,0,0,48,25h5a1,1,0,0,0,0-2Z" data-original="#000000" class="active-path" data-old_color="#000000" fill="#686F7A"/><path d="M56.75,13.62a17.008,17.008,0,0,0-24.05,0l-.7.71-.7-.71A16.989,16.989,0,0,0,5.11,35H5a3.009,3.009,0,0,0-3,3v8a3.009,3.009,0,0,0,3,3H6v1a3,3,0,0,0,6,0V46h3.59l15.7,15.71a1.014,1.014,0,0,0,1.42,0L56.75,37.67A17.026,17.026,0,0,0,56.75,13.62ZM6,47H5a1,1,0,0,1-1-1V38a1,1,0,0,1,1-1H6Zm4,3a1,1,0,0,1-2,0V34a1,1,0,0,1,2,0Zm2-6V40H30v4Zm43.33-7.75L32,59.59,18.41,46H30v4a3,3,0,0,0,6,0V49h1a3.009,3.009,0,0,0,3-3V38a3.009,3.009,0,0,0-3-3H36V34a3,3,0,0,0-6,0v4H12V34a2.992,2.992,0,0,0-5.8-1.04A14.993,14.993,0,0,1,19.28,10.64a14.871,14.871,0,0,1,10.6,4.4l1.41,1.41a1.008,1.008,0,0,0,1.42,0l1.41-1.41A15,15,0,1,1,55.33,36.25ZM32,50V34a1,1,0,0,1,2,0V50a1,1,0,0,1-2,0Zm4-3V37h1a1,1,0,0,1,1,1v8a1,1,0,0,1-1,1Z" data-original="#000000" class="active-path" data-old_color="#000000" fill="#686F7A"/></g></g> </svg>
