<?xml version="1.0"?>
<svg xmlns="http://www.w3.org/2000/svg" id="Capa_1" enable-background="new 0 0 512 512" height="512px" viewBox="0 0 512 512" width="512px"><g><g><path d="m437 332c-44.903 0-75 29.308-75 60 0 31.009 30.539 60 75 60 44.903 0 75-29.308 75-60v-255c0-9.988-9.573-17.152-19.121-14.423l-210 60c-6.44 1.84-10.879 7.726-10.879 14.423v206.894c-12.894-7.702-28.583-11.894-45-11.894-44.903 0-75 29.308-75 60 0 31.009 30.539 60 75 60 44.903 0 75-29.308 75-60v-183.685l180-51.429v127.008c-12.894-7.702-28.583-11.894-45-11.894zm0 90c-24.393 0-45-13.738-45-30s20.607-30 45-30 45 13.738 45 30-20.607 30-45 30zm-210 60c-24.393 0-45-13.738-45-30s20.607-30 45-30 45 13.738 45 30-20.607 30-45 30zm75-244.886v-28.799l180-51.428v28.799z" data-original="#000000" class="active-path" data-old_color="#000000" fill="#686F7A"/><path d="m75 332c44.903 0 75-29.308 75-60v-122h45c36.663 0 67.267-26.446 73.739-61.261 34.816-6.473 61.261-37.076 61.261-73.739 0-8.284-6.716-15-15-15h-90c-57.897 0-105 47.103-105 105v118.894c-12.894-7.702-28.583-11.894-45-11.894-44.903 0-75 29.308-75 60 0 31.009 30.539 60 75 60zm75-227c0-41.355 33.645-75 75-75h72.43c-6.19 17.461-22.873 30-42.43 30h-60c-8.284 0-15 6.716-15 15s6.716 15 15 15h42.42c-6.192 17.459-22.865 30-42.42 30h-45zm-75 137c24.393 0 45 13.738 45 30s-20.607 30-45 30-45-13.738-45-30 20.607-30 45-30z" data-original="#000000" class="active-path" data-old_color="#000000" fill="#686F7A"/></g></g> </svg>
