<?xml version="1.0"?>
<svg xmlns="http://www.w3.org/2000/svg" id="Capa_1" enable-background="new 0 0 511.96 511.96" height="512px" viewBox="0 0 511.96 511.96" width="512px"><g><g id="XMLID_1469_"><circle id="XMLID_1470_" cx="255.98" cy="262" r="23.563" data-original="#000000" class="active-path" data-old_color="#000000" fill="#686F7A"/><path id="XMLID_1473_" d="m255.98 349.836c48.433 0 87.836-39.403 87.836-87.836s-39.403-87.836-87.836-87.836-87.836 39.403-87.836 87.836 39.403 87.836 87.836 87.836zm0-141.399c29.535 0 53.563 24.028 53.563 53.563s-24.028 53.563-53.563 53.563-53.563-24.028-53.563-53.563 24.028-53.563 53.563-53.563z" data-original="#000000" class="active-path" data-old_color="#000000" fill="#686F7A"/><path id="XMLID_1476_" d="m255.98 413.037c83.282 0 151.037-67.755 151.037-151.037s-67.755-151.037-151.037-151.037-151.037 67.755-151.037 151.037 67.755 151.037 151.037 151.037zm0-268.873c64.975 0 117.836 52.861 117.836 117.836s-52.861 117.836-117.836 117.836-117.836-52.861-117.836-117.836 52.861-117.836 117.836-117.836z" data-original="#000000" class="active-path" data-old_color="#000000" fill="#686F7A"/><path id="XMLID_1479_" d="m416.316 422.336c42.827-42.827 66.413-99.769 66.413-160.336s-23.586-117.509-66.413-160.336c-39.196-39.195-90.216-62.261-145.016-65.893v-35.771h-30v35.732c-55.042 3.494-106.308 26.584-145.656 65.932-42.827 42.827-66.413 99.769-66.413 160.336s23.586 117.509 66.413 160.336c8.882 8.882 18.38 16.923 28.383 24.111l-44.3 44.3 21.213 21.213 49.276-49.276c32.213 17.027 68.292 26.065 105.764 26.065 37.824 0 74.234-9.199 106.676-26.538l49.748 49.749 21.213-21.213-44.88-44.881c9.707-7.04 18.935-14.886 27.579-23.53zm-160.336-341.373c99.824 0 181.037 81.213 181.037 181.037s-81.213 181.037-181.037 181.037-181.037-81.213-181.037-181.037 81.213-181.037 181.037-181.037z" data-original="#000000" class="active-path" data-old_color="#000000" fill="#686F7A"/></g></g> </svg>
